<svg width="48" height="48" viewBox="0 0 48 48" fill="none" xmlns="http://www.w3.org/2000/svg">
<rect width="48" height="48" rx="12" fill="#5200FF"/>
<path d="M31.7305 33.7778C30.2339 34.2966 28.8623 34.4799 27.6157 34.3277C26.3613 34.1529 25.2559 33.7486 24.2996 33.1148C23.3355 32.4584 22.5178 31.6749 21.8466 30.7645C21.1676 29.8315 20.6552 28.866 20.3094 27.8683C19.8771 26.6211 19.6236 25.4135 19.549 24.2455C19.4971 23.0697 19.6624 21.9709 20.0449 20.9493C20.4196 19.905 21.0612 18.9714 21.9698 18.1485C22.8784 17.3255 24.0923 16.6508 25.6117 16.1242C27.3578 15.519 29.0295 15.3587 30.6267 15.6433C32.2388 15.8973 33.6583 16.5483 34.8852 17.5964C36.1347 18.6365 37.07 20.0523 37.6909 21.8437C38.2961 23.5898 38.4337 25.2694 38.1038 26.8824C37.766 28.4727 37.0465 29.8778 35.9452 31.0977C34.8362 32.295 33.4313 33.1883 31.7305 33.7778ZM29.1229 30.8715C30.3248 30.4549 31.2893 29.8666 32.0165 29.1066C32.7437 28.3465 33.2078 27.4871 33.4089 26.5284C33.6249 25.5391 33.5442 24.5002 33.1669 23.4118C32.601 21.7791 31.6236 20.6446 30.2347 20.0084C28.8684 19.3643 27.2442 19.3684 25.362 20.0208C24.0468 20.4767 22.9763 21.089 22.1505 21.8578C21.3248 22.6267 20.7813 23.5136 20.52 24.5186C20.2735 25.493 20.3507 26.5585 20.7516 27.715C21.121 28.7808 21.7079 29.6315 22.5124 30.2671C23.3169 30.9026 24.2853 31.2782 25.4176 31.3938C26.5499 31.5093 27.785 31.3352 29.1229 30.8715ZM15.458 12.4424L22.1663 31.7968C22.4178 32.5224 22.655 33.3165 22.8778 34.1792C23.0927 35.0191 23.2565 35.7116 23.3693 36.2568L19.2535 37.6833L11.0361 13.975L15.458 12.4424Z" fill="white"/>
</svg>
